<svg xmlns="http://www.w3.org/2000/svg" xmlns:xlink="http://www.w3.org/1999/xlink" width="806" height="611" viewBox="0 0 806 611"><defs><style>.cls-1,.cls-2,.cls-47,.cls-8{fill:#fff;}.cls-1{fill-rule:evenodd;}.cls-3{fill:url(#linear-gradient);}.cls-4{fill:#85b4c9;}.cls-47,.cls-48,.cls-5,.cls-52,.cls-61,.cls-8{isolation:isolate;}.cls-6{fill:url(#linear-gradient-2);}.cls-7{fill:url(#linear-gradient-3);}.cls-8{opacity:0.5;}.cls-9{opacity:0.25;mix-blend-mode:multiply;}.cls-10{fill:#2a507a;}.cls-11,.cls-12,.cls-13,.cls-19,.cls-38,.cls-39{fill:none;}.cls-11,.cls-12,.cls-13{stroke:#2a507a;}.cls-11,.cls-12,.cls-19,.cls-38{stroke-miterlimit:10;}.cls-11,.cls-19{stroke-width:1.3px;}.cls-12,.cls-13,.cls-38,.cls-39{stroke-linecap:round;}.cls-12,.cls-38{stroke-width:5.41px;}.cls-13,.cls-39{stroke-linejoin:round;stroke-width:3.91px;}.cls-14{fill:url(#linear-gradient-4);}.cls-15{fill:url(#linear-gradient-5);}.cls-16{fill:url(#linear-gradient-6);}.cls-17{fill:url(#linear-gradient-7);}.cls-18{fill:url(#linear-gradient-8);}.cls-19{stroke:#ace2f9;}.cls-20{fill:url(#linear-gradient-9);}.cls-21{fill:url(#linear-gradient-10);}.cls-22{fill:url(#linear-gradient-11);}.cls-23{fill:url(#linear-gradient-12);}.cls-24{fill:url(#linear-gradient-13);}.cls-25{fill:url(#linear-gradient-14);}.cls-26{fill:url(#linear-gradient-15);}.cls-27{fill:url(#linear-gradient-16);}.cls-28{fill:url(#linear-gradient-17);}.cls-29{fill:url(#linear-gradient-18);}.cls-30{fill:url(#linear-gradient-19);}.cls-31{fill:url(#linear-gradient-20);}.cls-32{fill:url(#linear-gradient-21);}.cls-33{fill:url(#linear-gradient-22);}.cls-34{fill:url(#linear-gradient-23);}.cls-35{fill:url(#linear-gradient-24);}.cls-36{fill:url(#linear-gradient-25);}.cls-37{fill:#bde7ff;}.cls-38{stroke:#192469;}.cls-39{stroke:#e6505c;}.cls-40{clip-path:url(#clip-path);}.cls-41{mask:url(#mask);}.cls-42{fill:#d8e8f8;}.cls-43{clip-path:url(#clip-path-2);}.cls-44{mask:url(#mask-2);}.cls-45{fill:url(#linear-gradient-27);}.cls-46{mask:url(#mask-3-2);}.cls-47,.cls-48,.cls-61{opacity:0.3;}.cls-48{fill:#151731;}.cls-49{mask:url(#mask-5-2);}.cls-50{fill:url(#linear-gradient-28);}.cls-51{mask:url(#mask-6);}.cls-52{fill:#da433d;opacity:0.2;}.cls-53{mask:url(#mask-7);}.cls-54{fill:url(#linear-gradient-29);}.cls-55{fill:url(#linear-gradient-30);}.cls-56{fill:url(#linear-gradient-31);}.cls-57{mask:url(#mask-8-4);}.cls-58{fill:url(#linear-gradient-32);}.cls-59{mask:url(#mask-9);}.cls-60{mask:url(#mask-10);}.cls-61{fill:#373a5b;}.cls-62{mask:url(#mask-16);}.cls-63{fill:url(#linear-gradient-33);}.cls-64{opacity:0.3;}.cls-65{mask:url(#mask-18);}.cls-66{fill:url(#linear-gradient-34);}.cls-67{fill:#e6e6e6;}.cls-68{fill:url(#linear-gradient-35);}.cls-69{fill:url(#linear-gradient-36);}.cls-70{fill:#4d4d4d;}</style><linearGradient id="linear-gradient" x1="424.36" y1="529.01" x2="466.18" y2="529.01" gradientUnits="userSpaceOnUse"><stop offset="0" stop-color="#8bc1ce"/><stop offset="1" stop-color="#6974b1"/></linearGradient><linearGradient id="linear-gradient-2" x1="-3073.1" y1="1017.79" x2="-2319.3" y2="1017.79" gradientTransform="matrix(1, -0.01, -0.01, -1, 3109.69, 1324.78)" gradientUnits="userSpaceOnUse"><stop offset="0" stop-color="#f5f6f7" stop-opacity="0.5"/><stop offset="1" stop-color="#f5f6f7"/></linearGradient><linearGradient id="linear-gradient-3" x1="-6237.63" y1="367.48" x2="-6238.72" y2="365.21" gradientTransform="matrix(48.2, 0, 0, -43.2, 301340.95, 16026.37)" gradientUnits="userSpaceOnUse"><stop offset="0" stop-color="#39abc5"/><stop offset="1" stop-color="#a8eb9d"/></linearGradient><linearGradient id="linear-gradient-4" x1="175.3" y1="121.65" x2="613.85" y2="121.65" gradientUnits="userSpaceOnUse"><stop offset="0" stop-color="#ffcfaa"/><stop offset="1" stop-color="#fa6eb9"/></linearGradient><linearGradient id="linear-gradient-5" x1="192.69" y1="201.06" x2="242.67" y2="201.06" gradientUnits="userSpaceOnUse"><stop offset="0" stop-color="#fcefff"/><stop offset="1" stop-color="#c9e7ff"/></linearGradient><linearGradient id="linear-gradient-6" x1="263.89" y1="201.06" x2="313.87" y2="201.06" xlink:href="#linear-gradient-5"/><linearGradient id="linear-gradient-7" x1="335.1" y1="201.06" x2="385.08" y2="201.06" xlink:href="#linear-gradient-5"/><linearGradient id="linear-gradient-8" x1="406.3" y1="201.06" x2="456.28" y2="201.06" xlink:href="#linear-gradient-5"/><linearGradient id="linear-gradient-9" x1="548.71" y1="201.06" x2="598.69" y2="201.06" xlink:href="#linear-gradient-5"/><linearGradient id="linear-gradient-10" x1="192.69" y1="268.12" x2="242.67" y2="268.12" xlink:href="#linear-gradient-5"/><linearGradient id="linear-gradient-11" x1="263.89" y1="268.12" x2="313.87" y2="268.12" xlink:href="#linear-gradient-5"/><linearGradient id="linear-gradient-12" x1="406.3" y1="268.12" x2="456.28" y2="268.12" xlink:href="#linear-gradient-5"/><linearGradient id="linear-gradient-13" x1="477.51" y1="268.12" x2="527.49" y2="268.12" xlink:href="#linear-gradient-5"/><linearGradient id="linear-gradient-14" x1="548.71" y1="268.12" x2="598.69" y2="268.12" xlink:href="#linear-gradient-5"/><linearGradient id="linear-gradient-15" x1="192.69" y1="335.18" x2="242.67" y2="335.18" xlink:href="#linear-gradient-5"/><linearGradient id="linear-gradient-16" x1="263.89" y1="335.18" x2="313.87" y2="335.18" xlink:href="#linear-gradient-5"/><linearGradient id="linear-gradient-17" x1="335.1" y1="335.18" x2="385.08" y2="335.18" xlink:href="#linear-gradient-5"/><linearGradient id="linear-gradient-18" x1="406.3" y1="335.18" x2="456.28" y2="335.18" xlink:href="#linear-gradient-5"/><linearGradient id="linear-gradient-19" x1="477.51" y1="335.18" x2="527.49" y2="335.18" xlink:href="#linear-gradient-5"/><linearGradient id="linear-gradient-20" x1="548.71" y1="335.18" x2="598.69" y2="335.18" xlink:href="#linear-gradient-5"/><linearGradient id="linear-gradient-21" x1="263.89" y1="402.24" x2="313.87" y2="402.24" xlink:href="#linear-gradient-5"/><linearGradient id="linear-gradient-22" x1="335.1" y1="402.24" x2="385.08" y2="402.24" xlink:href="#linear-gradient-5"/><linearGradient id="linear-gradient-23" x1="406.3" y1="402.24" x2="456.28" y2="402.24" xlink:href="#linear-gradient-5"/><linearGradient id="linear-gradient-24" x1="477.51" y1="402.24" x2="527.49" y2="402.24" xlink:href="#linear-gradient-5"/><linearGradient id="linear-gradient-25" x1="548.71" y1="402.24" x2="598.69" y2="402.24" xlink:href="#linear-gradient-5"/><clipPath id="clip-path"><path class="cls-3" d="M443.8,521.08q1.81,7.36,12.8,7.93T466,537H429.23c-4,0-5.57-1.48-4.59-4.42l3-11.45Z"/></clipPath><mask id="mask" x="420.61" y="521.08" width="49.76" height="16.24" maskUnits="userSpaceOnUse"><g id="mask-3"><path id="path-2" class="cls-1" d="M446.89,521.08q-2,7.36-14.44,7.93T421.89,537h41.43q6.84,0,5.18-4.42l-3.42-11.45Z"/></g></mask><clipPath id="clip-path-2"><path class="cls-4" d="M386.58,521.08a25.66,25.66,0,0,0,7.11,7.93c4.67,3.52,2.89,7.94.34,7.94h-26.2c-4,0-5.57-1.48-4.59-4.42l7.21-11.45Z"/></clipPath><mask id="mask-2" x="361.67" y="520.42" width="45.65" height="17.3" maskUnits="userSpaceOnUse"><g id="mask-5"><path id="path-4" class="cls-1" d="M372.88,520.42a27,27,0,0,1-7.57,8.45c-5,3.75-3.08,8.45-.36,8.45h27.91q6.45,0,4.89-4.7l-7.69-12.2Z"/></g></mask><linearGradient id="linear-gradient-27" x1="-6223.15" y1="1179.92" x2="-6224.42" y2="1179.07" gradientTransform="matrix(83.79, 0, 0, -165.63, 521887.93, 195794.03)" gradientUnits="userSpaceOnUse"><stop offset="0" stop-color="#3067ac"/><stop offset="1" stop-color="#4e679a"/></linearGradient><mask id="mask-3-2" x="368.64" y="356.75" width="83.79" height="165.63" maskUnits="userSpaceOnUse"><g id="mask-8"><path id="path-7" class="cls-1" d="M396.06,356.75c-12.67,60.28-7.07,55.68-13.4,92.38-1.42,8.24-9.51,50.67-12.77,63.86-.78,3.13-3,8.44,1.38,8.89s12.45.5,15,.5,3.63-5.3,4.63-7.89Q397.36,497.62,421.6,401a353,353,0,0,1,5.57,109.7c-.36,3.53-1.54,11.17.41,11.17s15.26.5,16.72.5,2-8.38,3.42-17.44,3.06-20.72,4.16-53.44q1.1-32.7,0-94.75Z"/></g></mask><mask id="mask-5-2" x="368.64" y="351.5" width="83.79" height="170.88" maskUnits="userSpaceOnUse"><g id="mask-8-3" data-name="mask-8"><path id="path-7-3" data-name="path-7" class="cls-1" d="M396.06,356.75c-12.67,60.28-7.07,55.68-13.4,92.38-1.42,8.24-9.51,50.67-12.77,63.86-.78,3.13-3,8.44,1.38,8.89s12.45.5,15,.5,3.63-5.3,4.63-7.89Q397.36,497.62,421.6,401a353,353,0,0,1,5.57,109.7c-.36,3.53-1.54,11.17.41,11.17s15.26.5,16.72.5,2-8.38,3.42-17.44,3.06-20.72,4.16-53.44q1.1-32.7,0-94.75Z"/></g></mask><linearGradient id="linear-gradient-28" x1="-6072.96" y1="1122.63" x2="-6072.18" y2="1123.5" gradientTransform="matrix(27.73, -3.4, -4.04, -32.88, 173346.63, 16504.25)" gradientUnits="userSpaceOnUse"><stop offset="0" stop-color="#ff9292"/><stop offset="1" stop-color="#ffb59d"/></linearGradient><mask id="mask-6" x="414.5" y="237.52" width="25.73" height="35.18" maskUnits="userSpaceOnUse"><g id="mask-11"><path id="path-10" class="cls-1" d="M430.21,267.36q-1.83,5.25-6.3,5.33t-9.41-5.05l2.44-13,2.58-.34c-1.69-5.54-1.07-12.63-1.3-14.27,4.75,1.08,17.61.07,20.73-2.54,2.14,16.47,1.79,25.3-2.51,25.82a21.92,21.92,0,0,1-6.69-.36Z"/></g></mask><mask id="mask-7" x="409.51" y="237.52" width="30.72" height="35.18" maskUnits="userSpaceOnUse"><g id="mask-11-2" data-name="mask-11"><path id="path-10-2" data-name="path-10" class="cls-1" d="M430.21,267.36q-1.83,5.25-6.3,5.33t-9.41-5.05l2.44-13,2.58-.34c-1.69-5.54-1.07-12.63-1.3-14.27,4.75,1.08,17.61.07,20.73-2.54,2.14,16.47,1.79,25.3-2.51,25.82a21.92,21.92,0,0,1-6.69-.36Z"/></g></mask><linearGradient id="linear-gradient-29" x1="-6112.77" y1="1118.09" x2="-6111.37" y2="1119.22" gradientTransform="matrix(33.46, -4.11, -3.77, -30.71, 209183.73, 9476.46)" gradientUnits="userSpaceOnUse"><stop offset="0" stop-color="#ffa77b"/><stop offset="1" stop-color="#ffe6ca"/></linearGradient><linearGradient id="linear-gradient-30" x1="-6159.74" y1="1166.74" x2="-6158.96" y2="1167.61" gradientTransform="matrix(46.21, 0, 0, -65.7, 285135.04, 76935.16)" xlink:href="#linear-gradient-28"/><linearGradient id="linear-gradient-31" x1="-5971.9" y1="1147.57" x2="-5971.11" y2="1148.44" gradientTransform="matrix(20.08, 0, 0, -33.77, 120279.6, 39092.98)" xlink:href="#linear-gradient-28"/><mask id="mask-8-4" x="377.39" y="291.37" width="20.41" height="55.32" maskUnits="userSpaceOnUse"><g id="mask-14"><path id="path-13" class="cls-1" d="M381.36,304.18l16.1,6.32q-.46,21-1.62,27.45-15.15-2.82-17.68-8.2T381.36,304.18Z"/></g></mask><linearGradient id="linear-gradient-32" x1="-6233.45" y1="1175.58" x2="-6232.96" y2="1176.59" gradientTransform="matrix(94.85, 0, 0, -115.93, 591640.54, 136655.7)" xlink:href="#linear-gradient-3"/><mask id="mask-9" x="377.63" y="263.94" width="98.66" height="115.93" maskUnits="userSpaceOnUse"><g id="mask-17"><path id="path-16" class="cls-1" d="M442.19,266.9c-7.69-1-27.79.35-39,2q-11.83,1.77-15.8,10.34-7.63,18.28-9.75,25.58,5.72,4.91,19.83,5.7A334,334,0,0,1,389,375.16c-1.07,2.92,1.16,2.93,11.53,4.21s28.17-.08,39.58-2.08S459.71,376,456,367.75s-6.8-68.88-3-72.29c2.07-1.87,9.89-6.36,17.22-11,6-3.8-1.26-21.64-6.34-20.49C456.39,265.69,446.77,267.47,442.19,266.9Z"/></g></mask><mask id="mask-10" x="377.63" y="263.94" width="94.85" height="115.93" maskUnits="userSpaceOnUse"><g id="mask-17-2" data-name="mask-17"><path id="path-16-2" data-name="path-16" class="cls-1" d="M442.19,266.9c-7.69-1-27.79.35-39,2q-11.83,1.77-15.8,10.34-7.63,18.28-9.75,25.58,5.72,4.91,19.83,5.7A334,334,0,0,1,389,375.16c-1.07,2.92,1.16,2.93,11.53,4.21s28.17-.08,39.58-2.08S459.71,376,456,367.75s-6.8-68.88-3-72.29c2.07-1.87,9.89-6.36,17.22-11,6-3.8-1.26-21.64-6.34-20.49C456.39,265.69,446.77,267.47,442.19,266.9Z"/></g></mask><mask id="mask-16" x="377.63" y="263.94" width="111.26" height="115.93" maskUnits="userSpaceOnUse"><g id="mask-17-8" data-name="mask-17"><path id="path-16-8" data-name="path-16" class="cls-1" d="M442.19,266.9c-7.69-1-27.79.35-39,2q-11.83,1.77-15.8,10.34-7.63,18.28-9.75,25.58,5.72,4.91,19.83,5.7A334,334,0,0,1,389,375.16c-1.07,2.92,1.16,2.93,11.53,4.21s28.17-.08,39.58-2.08S459.71,376,456,367.75s-6.8-68.88-3-72.29c2.07-1.87,9.89-6.36,17.22-11,6-3.8-1.26-21.64-6.34-20.49C456.39,265.69,446.77,267.47,442.19,266.9Z"/></g></mask><linearGradient id="linear-gradient-33" x1="-6209.05" y1="355.3" x2="-6203.79" y2="362.11" gradientTransform="matrix(39.34, 0, 0, -39.34, 244790.76, 14570.56)" xlink:href="#linear-gradient-4"/><mask id="mask-18" x="540.41" y="346.34" width="168.12" height="168.12" maskUnits="userSpaceOnUse"><g id="mask-5-3" data-name="mask-5"><circle id="path-4-2" data-name="path-4" class="cls-2" cx="624.47" cy="430.4" r="84.06"/></g></mask><linearGradient id="linear-gradient-34" x1="75.92" y1="444.2" x2="128.03" y2="444.2" gradientUnits="userSpaceOnUse"><stop offset="0" stop-color="#0cac9d"/><stop offset="1" stop-color="#009be0"/></linearGradient><linearGradient id="linear-gradient-35" x1="114.15" y1="473.27" x2="161.26" y2="473.27" gradientUnits="userSpaceOnUse"><stop offset="0" stop-color="#3076a1"/><stop offset="1" stop-color="#639c38"/></linearGradient><linearGradient id="linear-gradient-36" x1="105.4" y1="451.66" x2="146.59" y2="451.66" xlink:href="#linear-gradient-34"/></defs><g class="cls-5"><g id="Layer_1" data-name="Layer 1"><path class="cls-6" d="M756.25,432.2c-61.06,97.44-153,146.22-266.59,157C334.54,603.82,351.42,476.22,193.91,476c-140.07-.2-236.23-139.72-88.22-296.13C265.32,11.18,565.4,15.37,704,151.93,775.09,222,816.32,336.34,756.25,432.2Z"/><g id="Settings-1"><path id="Shape" class="cls-7" d="M627,253.47a12.16,12.16,0,0,1-17.3-10,37.21,37.21,0,0,0-15.83-27.42,12.17,12.17,0,0,1,0-20,37.23,37.23,0,0,0,15.83-27.42,12.17,12.17,0,0,1,17.3-10,37.16,37.16,0,0,0,31.66,0,12.17,12.17,0,0,1,17.3,10,37.2,37.2,0,0,0,15.83,27.42,12.17,12.17,0,0,1,0,20A37.18,37.18,0,0,0,676,243.49a12.18,12.18,0,0,1-13.15,11.1,12,12,0,0,1-4.15-1.12A37.24,37.24,0,0,0,627,253.47Zm15.83-31a16.41,16.41,0,1,0-16.41-16.4A16.4,16.4,0,0,0,642.82,222.48Z"/><path id="Oval" class="cls-8" d="M642.82,233.06a27,27,0,1,1,27-27A27,27,0,0,1,642.82,233.06Zm0-2.25a24.73,24.73,0,1,0-24.73-24.73A24.73,24.73,0,0,0,642.82,230.81Z"/></g><g class="cls-9"><path class="cls-10" d="M619.05,117.12v318.1a25,25,0,0,1-25,25H205.49a25,25,0,0,1-25-25V117.12a25,25,0,0,1,25-25H594.07A25,25,0,0,1,619.05,117.12Z"/><path class="cls-10" d="M619.05,117.12v44.47H180.51V117.12a25,25,0,0,1,25-25H594.07A25,25,0,0,1,619.05,117.12Z"/><rect class="cls-10" x="197.9" y="181.28" width="49.98" height="49.98" rx="2.32"/><rect class="cls-10" x="269.1" y="181.28" width="49.98" height="49.98" rx="2.32"/><rect class="cls-10" x="340.31" y="181.28" width="49.98" height="49.98" rx="2.32"/><rect class="cls-10" x="411.51" y="181.28" width="49.98" height="49.98" rx="2.32"/><rect class="cls-11" x="482.72" y="181.28" width="49.98" height="49.98" rx="2.32"/><rect class="cls-10" x="553.92" y="181.28" width="49.98" height="49.98" rx="2.32"/><rect class="cls-10" x="197.9" y="248.34" width="49.98" height="49.98" rx="2.32"/><rect class="cls-10" x="269.1" y="248.34" width="49.98" height="49.98" rx="2.32"/><rect class="cls-11" x="340.31" y="248.34" width="49.98" height="49.98" rx="2.32"/><rect class="cls-10" x="411.51" y="248.34" width="49.98" height="49.98" rx="2.32"/><rect class="cls-10" x="482.72" y="248.34" width="49.98" height="49.98" rx="2.32"/><rect class="cls-10" x="553.92" y="248.34" width="49.98" height="49.98" rx="2.32"/><rect class="cls-10" x="197.9" y="315.4" width="49.98" height="49.98" rx="2.32"/><rect class="cls-10" x="269.1" y="315.4" width="49.98" height="49.98" rx="2.32"/><rect class="cls-10" x="340.31" y="315.4" width="49.98" height="49.98" rx="2.32"/><rect class="cls-10" x="411.51" y="315.4" width="49.98" height="49.98" rx="2.32"/><rect class="cls-10" x="482.72" y="315.4" width="49.98" height="49.98" rx="2.32"/><rect class="cls-10" x="553.92" y="315.4" width="49.98" height="49.98" rx="2.32"/><rect class="cls-11" x="197.9" y="382.46" width="49.98" height="49.98" rx="2.32"/><rect class="cls-10" x="269.1" y="382.46" width="49.98" height="49.98" rx="2.32"/><rect class="cls-10" x="340.31" y="382.46" width="49.98" height="49.98" rx="2.32"/><rect class="cls-10" x="411.51" y="382.46" width="49.98" height="49.98" rx="2.32"/><rect class="cls-10" x="482.72" y="382.46" width="49.98" height="49.98" rx="2.32"/><rect class="cls-10" x="553.92" y="382.46" width="49.98" height="49.98" rx="2.32"/><path class="cls-10" d="M216,130.88a9.09,9.09,0,1,1-9.09-9.09A9.08,9.08,0,0,1,216,130.88Z"/><circle class="cls-10" cx="284.31" cy="130.88" r="9.09"/><circle class="cls-10" cx="361.7" cy="130.88" r="9.09"/><path class="cls-10" d="M448.19,130.88a9.09,9.09,0,1,1-9.09-9.09A9.08,9.08,0,0,1,448.19,130.88Z"/><path class="cls-10" d="M525.58,130.88a9.09,9.09,0,1,1-9.09-9.09A9.08,9.08,0,0,1,525.58,130.88Z"/><path class="cls-10" d="M603,130.88a9.09,9.09,0,1,1-9.09-9.09A9.08,9.08,0,0,1,603,130.88Z"/><line class="cls-12" x1="206.91" y1="130.88" x2="206.91" y2="88.21"/><line class="cls-12" x1="284.31" y1="130.88" x2="284.31" y2="88.21"/><line class="cls-12" x1="361.7" y1="130.88" x2="361.7" y2="88.21"/><line class="cls-12" x1="516.49" y1="130.88" x2="516.49" y2="88.21"/><line class="cls-12" x1="593.89" y1="130.88" x2="593.89" y2="88.21"/><polyline class="cls-13" points="208.23 209.74 220.28 219.81 237.65 195.68"/><polyline class="cls-13" points="494.39 209.74 506.44 219.81 523.8 195.68"/><polyline class="cls-13" points="279.38 407.92 291.44 417.99 308.8 393.86"/></g><path class="cls-2" d="M613.85,111.91V430a25,25,0,0,1-25,25H200.28a25,25,0,0,1-25-25V111.91a25,25,0,0,1,25-25H588.86A25,25,0,0,1,613.85,111.91Z"/><path class="cls-14" d="M613.85,111.91v44.47H175.3V111.91a25,25,0,0,1,25-25H588.86A25,25,0,0,1,613.85,111.91Z"/><rect class="cls-15" x="192.69" y="176.07" width="49.98" height="49.98" rx="2.32"/><rect class="cls-16" x="263.89" y="176.07" width="49.98" height="49.98" rx="2.32"/><rect class="cls-17" x="335.1" y="176.07" width="49.98" height="49.98" rx="2.32"/><rect class="cls-18" x="406.3" y="176.07" width="49.98" height="49.98" rx="2.32"/><rect class="cls-19" x="477.51" y="176.07" width="49.98" height="49.98" rx="2.32"/><rect class="cls-20" x="548.71" y="176.07" width="49.98" height="49.98" rx="2.32"/><rect class="cls-21" x="192.69" y="243.13" width="49.98" height="49.98" rx="2.32"/><rect class="cls-22" x="263.89" y="243.13" width="49.98" height="49.98" rx="2.32"/><rect class="cls-19" x="335.1" y="243.13" width="49.98" height="49.98" rx="2.32"/><rect class="cls-23" x="406.3" y="243.13" width="49.98" height="49.98" rx="2.32"/><rect class="cls-24" x="477.51" y="243.13" width="49.98" height="49.98" rx="2.32"/><rect class="cls-25" x="548.71" y="243.13" width="49.98" height="49.98" rx="2.32"/><rect class="cls-26" x="192.69" y="310.19" width="49.98" height="49.98" rx="2.32"/><rect class="cls-27" x="263.89" y="310.19" width="49.98" height="49.98" rx="2.32"/><rect class="cls-28" x="335.1" y="310.19" width="49.98" height="49.98" rx="2.32"/><rect class="cls-29" x="406.3" y="310.19" width="49.98" height="49.98" rx="2.32"/><rect class="cls-30" x="477.51" y="310.19" width="49.98" height="49.98" rx="2.32"/><rect class="cls-31" x="548.71" y="310.19" width="49.98" height="49.98" rx="2.32"/><rect class="cls-19" x="192.69" y="377.25" width="49.98" height="49.98" rx="2.32"/><rect class="cls-32" x="263.89" y="377.25" width="49.98" height="49.98" rx="2.32"/><rect class="cls-33" x="335.1" y="377.25" width="49.98" height="49.98" rx="2.32"/><rect class="cls-34" x="406.3" y="377.25" width="49.98" height="49.98" rx="2.32"/><rect class="cls-35" x="477.51" y="377.25" width="49.98" height="49.98" rx="2.32"/><rect class="cls-36" x="548.71" y="377.25" width="49.98" height="49.98" rx="2.32"/><path class="cls-37" d="M210.79,125.67a9.09,9.09,0,1,1-9.09-9.09A9.09,9.09,0,0,1,210.79,125.67Z"/><circle class="cls-37" cx="279.1" cy="125.67" r="9.09"/><circle class="cls-37" cx="356.49" cy="125.67" r="9.09"/><path class="cls-37" d="M443,125.67a9.09,9.09,0,1,1-9.09-9.09A9.09,9.09,0,0,1,443,125.67Z"/><path class="cls-37" d="M520.37,125.67a9.09,9.09,0,1,1-9.08-9.09A9.09,9.09,0,0,1,520.37,125.67Z"/><path class="cls-37" d="M597.77,125.67a9.09,9.09,0,1,1-9.09-9.09A9.09,9.09,0,0,1,597.77,125.67Z"/><line class="cls-38" x1="201.7" y1="125.67" x2="201.7" y2="83"/><line class="cls-38" x1="279.1" y1="125.67" x2="279.1" y2="83"/><line class="cls-38" x1="356.49" y1="125.67" x2="356.49" y2="83"/><line class="cls-38" x1="511.29" y1="125.67" x2="511.29" y2="83"/><line class="cls-38" x1="588.68" y1="125.67" x2="588.68" y2="83"/><polyline class="cls-39" points="203.02 204.53 215.07 214.61 232.44 190.47"/><polyline class="cls-39" points="489.18 204.53 501.23 214.61 518.6 190.47"/><polyline class="cls-39" points="274.18 402.71 286.23 412.79 303.59 388.65"/><g id="Yogi-pose-5"><g id="Shoes"><g id="Path-24"><path class="cls-3" d="M443.8,521.08q1.81,7.36,12.8,7.93T466,537H429.23c-4,0-5.57-1.48-4.59-4.42l3-11.45Z"/><g class="cls-40"><g class="cls-41"><path id="Path" class="cls-42" d="M470.37,531.32h-1.26v6h-48.5v-6h31.53a.27.27,0,0,0,.25-.18C454.16,526.29,468.5,522.47,470.37,531.32Z"/></g></g></g><g id="Path-23-Copy-2"><path class="cls-4" d="M386.58,521.08a25.66,25.66,0,0,0,7.11,7.93c4.67,3.52,2.89,7.94.34,7.94h-26.2c-4,0-5.57-1.48-4.59-4.42l7.21-11.45Z"/><g class="cls-43"><g class="cls-44"><path class="cls-42" d="M398.17,531l5.21.15,3.94,6.17-45.65.41v-6.39h6.9"/></g></g></g></g><g id="Pants"><g id="Path-14"><path class="cls-45" d="M396.06,356.75c-12.67,60.28-7.07,55.68-13.4,92.38-1.42,8.24-9.51,50.67-12.77,63.86-.78,3.13-3,8.44,1.38,8.89s12.45.5,15,.5,3.63-5.3,4.63-7.89Q397.36,497.62,421.6,401a353,353,0,0,1,5.57,109.7c-.36,3.53-1.54,11.17.41,11.17s15.26.5,16.72.5,2-8.38,3.42-17.44,3.06-20.72,4.16-53.44q1.1-32.7,0-94.75Z"/></g><g class="cls-46"><rect id="Rectangle" class="cls-47" x="422.86" y="385.32" width="20" height="2"/></g><g class="cls-46"><path id="Path-4-3" data-name="Path-4" class="cls-48" d="M422.36,401.32q-8.62,1.74-12.08,7.52c-3.45,5.78,1.24,20.31-4.61,23.48s-3.16,33.28-4.5,40.11q-1.34,6.82,3.13,8.19Z"/></g><g class="cls-49"><path id="Path-16-10" data-name="Path-16" class="cls-48" d="M452.43,370.58q-.76,13.88-21.94,13.87c-21.18,0-3.94,16.17-25.57,21.63s-8.2,39.52-21.35,39.52q-13.15,0,12.08-91.61l56.23-2.49Z"/></g></g><g id="Head"><g id="Group"><path class="cls-50" d="M430.21,267.36q-1.83,5.25-6.3,5.33t-9.41-5.05l2.44-13,2.58-.34c-1.69-5.54-1.07-12.63-1.3-14.27,4.75,1.08,17.61.07,20.73-2.54,2.14,16.47,1.79,25.3-2.51,25.82a21.92,21.92,0,0,1-6.69-.36Z"/><g class="cls-51"><path id="Path-11" class="cls-52" d="M436.89,237.77q-5.25,5.82-10.87,5.36c-5.62-.45-3.42,7.69-8.24,6.08l.51-11.08Z"/></g><g class="cls-53"><path id="Path-85" class="cls-52" d="M414.25,262.78q14.91,2.69,18.14-8.55l-22.88,2.41Z"/></g></g><path class="cls-54" d="M434.22,246.85a3.94,3.94,0,0,0-3.36,4.45,4,4,0,0,0,1.62,2.78c-1.17,1.32-1.69,3.81-5.35,5.17s-11.71,2.18-13.27-.35c-6.64-10.82-1.8-23.19,2.58-26.53,5.25-4,19.23-5.65,23.13-2.72s6.81,14.38-3.16,17.6A3.8,3.8,0,0,0,434.22,246.85Z"/></g><g id="Hands"><g id="Path-25"><path class="cls-55" d="M482.61,275.37a40.47,40.47,0,0,1-12.25,7.69c0-6.31-1.3-13.79-5.78-18.69l9.95-2.92,20.39-27.19q1.68-7,2.77-8.86c.52-.88,4.29-3.08,6.31-4,.77-.35,5.42-4,6.18-4,1.25-.13.62,2.36-2.13,4.72-3,2.56,2.25,6.07.59,10.56q-1.35,3.63-4.2,4.58C492.34,260.75,484.86,273.15,482.61,275.37Z"/></g><g id="Path-87"><g id="Path-86"><path class="cls-56" d="M381.36,304.18l16.1,6.32q-.46,21-1.62,27.45-15.15-2.82-17.68-8.2T381.36,304.18Z"/></g><g class="cls-57"><path id="Path-15" class="cls-52" d="M394.79,346.69q4-37.87,2.67-55.32-2.67,3.3-2.67,12.34c0,9-9.08,0-5.57,13.29s-10.76,9.76-2.49,18.66q8.26,8.91,7,10.71Z"/></g></g></g><g id="Shirt"><path class="cls-58" d="M442.19,266.9c-7.69-1-27.79.35-39,2q-11.83,1.77-15.8,10.34-7.63,18.28-9.75,25.58,5.72,4.91,19.83,5.7A334,334,0,0,1,389,375.16c-1.07,2.92,1.16,2.93,11.53,4.21s28.17-.08,39.58-2.08S459.71,376,456,367.75s-6.8-68.88-3-72.29c2.07-1.87,9.89-6.36,17.22-11,6-3.8-1.26-21.64-6.34-20.49C456.39,265.69,446.77,267.47,442.19,266.9Z"/><g class="cls-59"><polygon id="Rectangle-Copy" class="cls-8" points="450.84 291.65 476.29 291.65 471.89 296.37 450.84 296.37 450.84 291.65"/></g><g class="cls-60"><rect id="Rectangle-Copy-2" class="cls-8" x="446.84" y="307.37" width="17.14" height="5"/></g><g class="cls-60"><rect id="Rectangle-Copy-3" class="cls-8" x="445.84" y="323.37" width="17.14" height="5"/></g><g class="cls-60"><rect id="Rectangle-Copy-4" class="cls-8" x="445.84" y="339.37" width="17.14" height="5"/></g><g class="cls-60"><polygon id="Rectangle-Copy-5" class="cls-8" points="447.84 355.37 464.98 355.37 464.98 360.37 447.84 360.37 447.84 355.37"/></g><g class="cls-60"><polygon id="Rectangle-Copy-6" class="cls-8" points="448.84 371.37 465.98 371.37 465.98 376.37 448.84 376.37 448.84 371.37"/></g><g class="cls-60"><path id="Path-7-4" data-name="Path-7" class="cls-61" d="M396.61,267q-4.31,5.42,10.68,5.41t26.13-7Z"/></g><g class="cls-62"><path id="Path-26" class="cls-61" d="M453,294.34q2.7-9.19,14.37-11.06c11.67-1.86,11.87-12.33,19.2-14.36q7.32-2-8.28,13.1Z"/></g><g class="cls-60"><path class="cls-61" d="M394.79,346.69q4-37.87,2.67-55.32-2.67,3.3-2.67,12.34c0,9-9.08,0-5.57,13.29s-10.76,9.76-2.49,18.66q8.26,8.91,7,10.71Z"/></g></g></g><g id="Clock"><g id="Oval-2"><g id="Oval-2-2" data-name="Oval"><circle class="cls-63" cx="624.47" cy="430.4" r="105.6"/></g><g id="Oval-Copy-61" class="cls-64"><circle class="cls-2" cx="624.47" cy="430.4" r="84.06"/></g><g class="cls-65"><path id="Path-149" class="cls-2" d="M662,427.42a5.37,5.37,0,1,1,0,10.73H623.26a5.36,5.36,0,0,1-5.37-5.37V384.67a5.37,5.37,0,1,1,10.74,0v42.75Z"/></g></g></g><path class="cls-66" d="M80.48,375.35c4.49-2.15,9,12.15,9,12.15,7.64,10.09,18.31-3.33,17.27,11.75-1.83,26.4,30.38,8.3,15.52,35.86s13.12,15.58,3.88,37.8,2.74,48.72-11.16,37.83c0,0-12.23-26.83-24.84-35.13s7.55-18.15,3.61-29.42c-5.74-16.37-19.55-15.73-9.59-33.33S65.21,382.65,80.48,375.35Z"/><g class="cls-64"><path class="cls-67" d="M119.35,500.64c-6-4.23-13.07-33.75-13.49-51.33-.21-9-2.87-12.75-5.22-16.06s-4.19-5.9-3.06-12.17c2.16-12-3.51-17.17-3.57-17.22l.66-.75c.25.22,6.16,5.56,3.89,18.14-1,5.86.69,8.32,2.89,11.42,2.31,3.26,5.19,7.31,5.41,16.62.45,18.87,7.66,46.73,13.07,50.54Z"/></g><path class="cls-68" d="M121.61,502.83a12.72,12.72,0,0,1-2.55-.28,5.55,5.55,0,0,1-4.52-3.64c-1.63-4.64,2.14-12.18,5.19-15.82a23.17,23.17,0,0,0,4.61-15c-.09-1.45-.24-2.79-.37-4-.38-3.42-.66-5.9.81-7.55,1.3-1.46,3.8-2.09,8.37-2.11,8,0,11.18-3.35,13.73-6a14.63,14.63,0,0,1,3.34-2.88h0c4-2.18,8.23-2.5,10.06-.76.87.82,1.61,2.44.17,5.46a20.9,20.9,0,0,1-4.41,5.9c-1.85,1.89-3.07,3.14-2.43,5.62.14.59.32,1.18.49,1.77,1.24,4.22,2.64,9-4.6,12.26-1.53.69-2.93,1.24-4.16,1.73-5.05,2-8.1,3.18-11.54,10.44-.67,1.4-1.25,2.74-1.82,4C129.26,498.18,127.21,502.83,121.61,502.83Z"/><g class="cls-64"><path class="cls-67" d="M119.17,508.58l-1-.05c0-.94,1.31-23,10.15-29.41,9.7-7.07,12.76-14.67,14.22-19.77,1.72-6,10.45-7.62,10.83-7.69l.17,1c-.09,0-8.5,1.57-10,7-1.5,5.24-4.64,13.05-14.59,20.31C120.44,486.09,119.18,508.36,119.17,508.58Z"/></g><path class="cls-69" d="M139.39,397.58c-6.29-2.16-5,10-7.64,18.92s-29.54,3.91-18.26,26.36-14.27,7.5-6.64,27.09.67,40.54,9,35.21,4.66-30,13.29-32.92,10-6.36,1.5-14.32S153,442,145.36,426,146.65,400.07,139.39,397.58Z"/><g class="cls-64"><path class="cls-67" d="M119.67,504.22c-.79-3.35-7.54-32.86-1.24-36.43,5.55-3.14,5.41-15.37,4.54-26.92-.76-10.22,12.37-15,12.93-15.2l.33.94c-.13.05-13,4.73-12.26,14.19.89,11.86,1,24.44-5,27.86-4.79,2.71-.38,26.42,1.72,35.33Z"/></g><polygon class="cls-70" points="133.96 493.71 124.98 527.76 104.93 527.76 95.95 493.71 133.96 493.71"/></g></g></svg>